<svg width="74" height="16" viewBox="0 0 74 16" fill="none" xmlns="http://www.w3.org/2000/svg">
<mask id="path-1-outside-1_15481_41" maskUnits="userSpaceOnUse" x="-1" y="0" width="76" height="16" fill="black">
<rect fill="white" x="-1" width="76" height="16"/>
<path d="M5.14 15.24C4.15333 15.24 3.28667 15.06 2.54 14.7C1.80667 14.34 1.22667 13.8267 0.8 13.16C0.386667 12.4933 0.173333 11.7 0.16 10.78H2.4C2.41333 11.4867 2.65333 12.0933 3.12 12.6C3.6 13.0933 4.26667 13.34 5.12 13.34C5.90667 13.34 6.52 13.16 6.96 12.8C7.4 12.4267 7.62 11.9467 7.62 11.36C7.62 10.8667 7.48667 10.46 7.22 10.14C6.96667 9.80667 6.56667 9.51333 6.02 9.26C5.47333 8.99333 4.76667 8.72 3.9 8.44C2.74 8.06667 1.88667 7.55333 1.34 6.9C0.793333 6.23333 0.52 5.42 0.52 4.46C0.52 3.35333 0.92 2.46 1.72 1.78C2.52 1.1 3.62 0.76 5.02 0.76C6.38 0.76 7.47333 1.11333 8.3 1.82C9.12667 2.51333 9.55333 3.48 9.58 4.72H7.32C7.32 4.38667 7.22667 4.06667 7.04 3.76C6.85333 3.44 6.58667 3.18 6.24 2.98C5.89333 2.76667 5.46667 2.66 4.96 2.66C4.33333 2.64667 3.80667 2.8 3.38 3.12C2.95333 3.42667 2.74 3.84667 2.74 4.38C2.74 5.03333 3 5.54667 3.52 5.92C4.04 6.28 4.88667 6.65333 6.06 7.04C6.79333 7.28 7.44 7.57333 8 7.92C8.57333 8.25333 9.02 8.68667 9.34 9.22C9.67333 9.74 9.84 10.4067 9.84 11.22C9.84 11.9667 9.65333 12.6467 9.28 13.26C8.90667 13.86 8.36667 14.34 7.66 14.7C6.96667 15.06 6.12667 15.24 5.14 15.24ZM16.4122 15V0.999999H21.1522C22.2189 0.999999 23.0989 1.18667 23.7922 1.56C24.4855 1.92 24.9989 2.42 25.3322 3.06C25.6655 3.7 25.8322 4.43333 25.8322 5.26C25.8322 6.08667 25.6655 6.82 25.3322 7.46C24.9989 8.1 24.4855 8.60667 23.7922 8.98C23.0989 9.34 22.2189 9.52 21.1522 9.52H18.5322V15H16.4122ZM18.5322 7.62H21.0522C21.9589 7.62 22.6189 7.40667 23.0322 6.98C23.4589 6.55333 23.6722 5.98 23.6722 5.26C23.6722 4.55333 23.4589 3.98667 23.0322 3.56C22.6189 3.12 21.9589 2.9 21.0522 2.9H18.5322V7.62ZM36.9844 15.24C35.851 15.24 34.871 14.9467 34.0444 14.36C33.2177 13.7733 32.5844 12.94 32.1444 11.86C31.7044 10.78 31.4844 9.49333 31.4844 8C31.4844 6.50667 31.7044 5.22 32.1444 4.14C32.5844 3.06 33.2177 2.22667 34.0444 1.64C34.871 1.05333 35.851 0.76 36.9844 0.76C38.131 0.76 39.111 1.05333 39.9244 1.64C40.751 2.22667 41.3844 3.06 41.8244 4.14C42.2644 5.22 42.4844 6.50667 42.4844 8C42.4844 9.49333 42.2644 10.78 41.8244 11.86C41.3844 12.94 40.751 13.7733 39.9244 14.36C39.111 14.9467 38.131 15.24 36.9844 15.24ZM36.9844 13.24C37.9844 13.24 38.791 12.7933 39.4044 11.9C40.0177 10.9933 40.3244 9.69333 40.3244 8C40.3244 6.30667 40.0177 5.01333 39.4044 4.12C38.791 3.21333 37.9844 2.76 36.9844 2.76C35.971 2.76 35.1577 3.21333 34.5444 4.12C33.9444 5.01333 33.6444 6.30667 33.6444 8C33.6444 9.69333 33.9444 10.9933 34.5444 11.9C35.1577 12.7933 35.971 13.24 36.9844 13.24ZM51.9166 15V2.9H48.1566V0.999999H57.7966V2.9H54.0366V15H51.9166ZM69.1088 15.24C68.1221 15.24 67.2554 15.06 66.5088 14.7C65.7754 14.34 65.1954 13.8267 64.7688 13.16C64.3554 12.4933 64.1421 11.7 64.1288 10.78H66.3688C66.3821 11.4867 66.6221 12.0933 67.0888 12.6C67.5688 13.0933 68.2354 13.34 69.0888 13.34C69.8754 13.34 70.4888 13.16 70.9288 12.8C71.3688 12.4267 71.5888 11.9467 71.5888 11.36C71.5888 10.8667 71.4554 10.46 71.1888 10.14C70.9354 9.80667 70.5354 9.51333 69.9888 9.26C69.4421 8.99333 68.7354 8.72 67.8688 8.44C66.7088 8.06667 65.8554 7.55333 65.3088 6.9C64.7621 6.23333 64.4888 5.42 64.4888 4.46C64.4888 3.35333 64.8888 2.46 65.6888 1.78C66.4888 1.1 67.5888 0.76 68.9888 0.76C70.3488 0.76 71.4421 1.11333 72.2688 1.82C73.0954 2.51333 73.5221 3.48 73.5488 4.72H71.2888C71.2888 4.38667 71.1954 4.06667 71.0088 3.76C70.8221 3.44 70.5554 3.18 70.2088 2.98C69.8621 2.76667 69.4354 2.66 68.9288 2.66C68.3021 2.64667 67.7754 2.8 67.3488 3.12C66.9221 3.42667 66.7088 3.84667 66.7088 4.38C66.7088 5.03333 66.9688 5.54667 67.4888 5.92C68.0088 6.28 68.8554 6.65333 70.0288 7.04C70.7621 7.28 71.4088 7.57333 71.9688 7.92C72.5421 8.25333 72.9888 8.68667 73.3088 9.22C73.6421 9.74 73.8088 10.4067 73.8088 11.22C73.8088 11.9667 73.6221 12.6467 73.2487 13.26C72.8754 13.86 72.3354 14.34 71.6288 14.7C70.9354 15.06 70.0954 15.24 69.1088 15.24Z"/>
</mask>
<path d="M5.14 15.24C4.15333 15.24 3.28667 15.06 2.54 14.7C1.80667 14.34 1.22667 13.8267 0.8 13.16C0.386667 12.4933 0.173333 11.7 0.16 10.78H2.4C2.41333 11.4867 2.65333 12.0933 3.12 12.6C3.6 13.0933 4.26667 13.34 5.12 13.34C5.90667 13.34 6.52 13.16 6.96 12.8C7.4 12.4267 7.62 11.9467 7.62 11.36C7.62 10.8667 7.48667 10.46 7.22 10.14C6.96667 9.80667 6.56667 9.51333 6.02 9.26C5.47333 8.99333 4.76667 8.72 3.9 8.44C2.74 8.06667 1.88667 7.55333 1.34 6.9C0.793333 6.23333 0.52 5.42 0.52 4.46C0.52 3.35333 0.92 2.46 1.72 1.78C2.52 1.1 3.62 0.76 5.02 0.76C6.38 0.76 7.47333 1.11333 8.3 1.82C9.12667 2.51333 9.55333 3.48 9.58 4.72H7.32C7.32 4.38667 7.22667 4.06667 7.04 3.76C6.85333 3.44 6.58667 3.18 6.24 2.98C5.89333 2.76667 5.46667 2.66 4.96 2.66C4.33333 2.64667 3.80667 2.8 3.38 3.12C2.95333 3.42667 2.74 3.84667 2.74 4.38C2.74 5.03333 3 5.54667 3.52 5.92C4.04 6.28 4.88667 6.65333 6.06 7.04C6.79333 7.28 7.44 7.57333 8 7.92C8.57333 8.25333 9.02 8.68667 9.34 9.22C9.67333 9.74 9.84 10.4067 9.84 11.22C9.84 11.9667 9.65333 12.6467 9.28 13.26C8.90667 13.86 8.36667 14.34 7.66 14.7C6.96667 15.06 6.12667 15.24 5.14 15.24ZM16.4122 15V0.999999H21.1522C22.2189 0.999999 23.0989 1.18667 23.7922 1.56C24.4855 1.92 24.9989 2.42 25.3322 3.06C25.6655 3.7 25.8322 4.43333 25.8322 5.26C25.8322 6.08667 25.6655 6.82 25.3322 7.46C24.9989 8.1 24.4855 8.60667 23.7922 8.98C23.0989 9.34 22.2189 9.52 21.1522 9.52H18.5322V15H16.4122ZM18.5322 7.62H21.0522C21.9589 7.62 22.6189 7.40667 23.0322 6.98C23.4589 6.55333 23.6722 5.98 23.6722 5.26C23.6722 4.55333 23.4589 3.98667 23.0322 3.56C22.6189 3.12 21.9589 2.9 21.0522 2.9H18.5322V7.62ZM36.9844 15.24C35.851 15.24 34.871 14.9467 34.0444 14.36C33.2177 13.7733 32.5844 12.94 32.1444 11.86C31.7044 10.78 31.4844 9.49333 31.4844 8C31.4844 6.50667 31.7044 5.22 32.1444 4.14C32.5844 3.06 33.2177 2.22667 34.0444 1.64C34.871 1.05333 35.851 0.76 36.9844 0.76C38.131 0.76 39.111 1.05333 39.9244 1.64C40.751 2.22667 41.3844 3.06 41.8244 4.14C42.2644 5.22 42.4844 6.50667 42.4844 8C42.4844 9.49333 42.2644 10.78 41.8244 11.86C41.3844 12.94 40.751 13.7733 39.9244 14.36C39.111 14.9467 38.131 15.24 36.9844 15.24ZM36.9844 13.24C37.9844 13.24 38.791 12.7933 39.4044 11.9C40.0177 10.9933 40.3244 9.69333 40.3244 8C40.3244 6.30667 40.0177 5.01333 39.4044 4.12C38.791 3.21333 37.9844 2.76 36.9844 2.76C35.971 2.76 35.1577 3.21333 34.5444 4.12C33.9444 5.01333 33.6444 6.30667 33.6444 8C33.6444 9.69333 33.9444 10.9933 34.5444 11.9C35.1577 12.7933 35.971 13.24 36.9844 13.24ZM51.9166 15V2.9H48.1566V0.999999H57.7966V2.9H54.0366V15H51.9166ZM69.1088 15.24C68.1221 15.24 67.2554 15.06 66.5088 14.7C65.7754 14.34 65.1954 13.8267 64.7688 13.16C64.3554 12.4933 64.1421 11.7 64.1288 10.78H66.3688C66.3821 11.4867 66.6221 12.0933 67.0888 12.6C67.5688 13.0933 68.2354 13.34 69.0888 13.34C69.8754 13.34 70.4888 13.16 70.9288 12.8C71.3688 12.4267 71.5888 11.9467 71.5888 11.36C71.5888 10.8667 71.4554 10.46 71.1888 10.14C70.9354 9.80667 70.5354 9.51333 69.9888 9.26C69.4421 8.99333 68.7354 8.72 67.8688 8.44C66.7088 8.06667 65.8554 7.55333 65.3088 6.9C64.7621 6.23333 64.4888 5.42 64.4888 4.46C64.4888 3.35333 64.8888 2.46 65.6888 1.78C66.4888 1.1 67.5888 0.76 68.9888 0.76C70.3488 0.76 71.4421 1.11333 72.2688 1.82C73.0954 2.51333 73.5221 3.48 73.5488 4.72H71.2888C71.2888 4.38667 71.1954 4.06667 71.0088 3.76C70.8221 3.44 70.5554 3.18 70.2088 2.98C69.8621 2.76667 69.4354 2.66 68.9288 2.66C68.3021 2.64667 67.7754 2.8 67.3488 3.12C66.9221 3.42667 66.7088 3.84667 66.7088 4.38C66.7088 5.03333 66.9688 5.54667 67.4888 5.92C68.0088 6.28 68.8554 6.65333 70.0288 7.04C70.7621 7.28 71.4088 7.57333 71.9688 7.92C72.5421 8.25333 72.9888 8.68667 73.3088 9.22C73.6421 9.74 73.8088 10.4067 73.8088 11.22C73.8088 11.9667 73.6221 12.6467 73.2487 13.26C72.8754 13.86 72.3354 14.34 71.6288 14.7C70.9354 15.06 70.0954 15.24 69.1088 15.24Z" fill="#212121"/>
<path d="M2.54 14.7L2.45186 14.8795L2.45314 14.8802L2.54 14.7ZM0.8 13.16L0.630002 13.2654L0.631546 13.2678L0.8 13.16ZM0.16 10.78V10.58H-0.0429195L-0.039979 10.7829L0.16 10.78ZM2.4 10.78L2.59996 10.7762L2.59626 10.58H2.4V10.78ZM3.12 12.6L2.97284 12.7355L2.97666 12.7395L3.12 12.6ZM6.96 12.8L7.08667 12.9548L7.0894 12.9525L6.96 12.8ZM7.22 10.14L7.06061 10.2611L7.06636 10.268L7.22 10.14ZM6.02 9.26L5.9323 9.43979L5.93591 9.44146L6.02 9.26ZM3.9 8.44L3.96149 8.24969L3.96127 8.24962L3.9 8.44ZM1.34 6.9L1.18534 7.02682L1.18661 7.02834L1.34 6.9ZM8.3 1.82L8.17004 1.97203L8.17148 1.97324L8.3 1.82ZM9.58 4.72V4.92H9.78435L9.77995 4.7157L9.58 4.72ZM7.32 4.72H7.12V4.92H7.32V4.72ZM7.04 3.76L6.86721 3.86079L6.86916 3.86399L7.04 3.76ZM6.24 2.98L6.13514 3.1504L6.14006 3.15324L6.24 2.98ZM4.96 2.66L4.95574 2.86H4.96V2.66ZM3.38 3.12L3.49675 3.28244L3.5 3.28L3.38 3.12ZM3.52 5.92L3.40334 6.08249L3.40616 6.08444L3.52 5.92ZM6.06 7.04L5.9974 7.22995L5.99779 7.23008L6.06 7.04ZM8 7.92L7.89469 8.09012L7.89948 8.0929L8 7.92ZM9.34 9.22L9.16843 9.32294L9.17162 9.32793L9.34 9.22ZM9.28 13.26L9.44982 13.3657L9.45084 13.364L9.28 13.26ZM7.66 14.7L7.56921 14.5218L7.56784 14.5225L7.66 14.7ZM5.14 15.04C4.17775 15.04 3.34176 14.8645 2.62686 14.5198L2.45314 14.8802C3.23158 15.2555 4.12892 15.44 5.14 15.44V15.04ZM2.62813 14.5205C1.92652 14.176 1.37475 13.687 0.968454 13.0522L0.631546 13.2678C1.07858 13.9663 1.68681 14.504 2.45187 14.8795L2.62813 14.5205ZM0.969981 13.0546C0.578838 12.4237 0.372879 11.6672 0.359979 10.7771L-0.039979 10.7829C-0.0262122 11.7328 0.194495 12.5629 0.63002 13.2654L0.969981 13.0546ZM0.16 10.98H2.4V10.58H0.16V10.98ZM2.20004 10.7838C2.21427 11.5379 2.47216 12.1918 2.97289 12.7355L3.26711 12.4645C2.83451 11.9948 2.6124 11.4354 2.59996 10.7762L2.20004 10.7838ZM2.97666 12.7395C3.50293 13.2804 4.22644 13.54 5.12 13.54V13.14C4.30689 13.14 3.69707 12.9063 3.26335 12.4605L2.97666 12.7395ZM5.12 13.54C5.93528 13.54 6.59935 13.3535 7.08665 12.9548L6.83335 12.6452C6.44065 12.9665 5.87805 13.14 5.12 13.14V13.54ZM7.0894 12.9525C7.57504 12.5404 7.82 12.0043 7.82 11.36H7.42C7.42 11.8891 7.22496 12.3129 6.83061 12.6475L7.0894 12.9525ZM7.82 11.36C7.82 10.8289 7.67557 10.3743 7.37364 10.012L7.06636 10.268C7.29776 10.5457 7.42 10.9044 7.42 11.36H7.82ZM7.37923 10.019C7.0994 9.65078 6.66822 9.33996 6.10409 9.07854L5.93591 9.44146C6.46511 9.6867 6.83394 9.96255 7.06077 10.261L7.37923 10.019ZM6.10769 9.08025C5.5495 8.80796 4.83318 8.53131 3.96149 8.24969L3.83851 8.63031C4.70015 8.90869 5.39717 9.17871 5.93232 9.43975L6.10769 9.08025ZM3.96127 8.24962C2.82252 7.88312 2.00752 7.38611 1.49339 6.77166L1.18661 7.02834C1.76581 7.72056 2.65749 8.25021 3.83873 8.63038L3.96127 8.24962ZM1.49465 6.77318C0.980664 6.14637 0.72 5.37934 0.72 4.46H0.32C0.32 5.46066 0.606003 6.3203 1.18535 7.02682L1.49465 6.77318ZM0.72 4.46C0.72 3.40839 1.09692 2.5721 1.84953 1.93239L1.59047 1.62761C0.743078 2.3479 0.32 3.29828 0.32 4.46H0.72ZM1.84953 1.93239C2.60283 1.29209 3.65149 0.96 5.02 0.96V0.56C3.58851 0.56 2.43717 0.907914 1.59047 1.62761L1.84953 1.93239ZM5.02 0.96C6.34467 0.96 7.38798 1.30348 8.17004 1.97202L8.42996 1.66797C7.55869 0.923184 6.41533 0.56 5.02 0.56V0.96ZM8.17148 1.97324C8.94716 2.62381 9.35441 3.53237 9.38005 4.7243L9.77995 4.7157C9.75225 3.42763 9.30617 2.40286 8.42852 1.66676L8.17148 1.97324ZM9.58 4.52H7.32V4.92H9.58V4.52ZM7.52 4.72C7.52 4.34716 7.41505 3.9915 7.21084 3.65601L6.86916 3.86399C7.03828 4.14183 7.12 4.42617 7.12 4.72H7.52ZM7.21276 3.65923C7.00714 3.30675 6.71428 3.02272 6.33994 2.80676L6.14006 3.15324C6.45906 3.33728 6.69952 3.57325 6.86724 3.86077L7.21276 3.65923ZM6.34482 2.80967C5.95975 2.5727 5.49467 2.46 4.96 2.46V2.86C5.43867 2.86 5.82692 2.96063 6.13518 3.15033L6.34482 2.80967ZM4.96425 2.46004C4.30102 2.44593 3.72847 2.60864 3.26 2.96L3.5 3.28C3.88486 2.99135 4.36564 2.8474 4.95575 2.85995L4.96425 2.46004ZM3.26327 2.9576C2.7834 3.3025 2.54 3.78343 2.54 4.38H2.94C2.94 3.9099 3.12327 3.55083 3.49673 3.2824L3.26327 2.9576ZM2.54 4.38C2.54 5.09618 2.82976 5.67065 3.40336 6.08246L3.63664 5.75753C3.17024 5.42268 2.94 4.97049 2.94 4.38H2.54ZM3.40616 6.08444C3.95059 6.46135 4.81971 6.84185 5.9974 7.22995L6.1226 6.85005C4.95362 6.46482 4.12941 6.09865 3.63384 5.75556L3.40616 6.08444ZM5.99779 7.23008C6.71853 7.46596 7.35031 7.75303 7.89473 8.09005L8.10527 7.74995C7.52969 7.39364 6.86813 7.09404 6.12221 6.84992L5.99779 7.23008ZM7.89948 8.0929C8.44562 8.41043 8.86702 8.82043 9.1685 9.3229L9.5115 9.1171C9.17298 8.5529 8.70105 8.09624 8.10052 7.7471L7.89948 8.0929ZM9.17162 9.32793C9.47872 9.807 9.64 10.433 9.64 11.22H10.04C10.04 10.3803 9.86795 9.673 9.50838 9.11207L9.17162 9.32793ZM9.64 11.22C9.64 11.9315 9.46264 12.5753 9.10916 13.156L9.45084 13.364C9.84403 12.718 10.04 12.0018 10.04 11.22H9.64ZM9.11019 13.1543C8.75838 13.7198 8.24749 14.1763 7.56922 14.5218L7.75079 14.8782C8.48584 14.5037 9.05496 14.0002 9.44981 13.3657L9.11019 13.1543ZM7.56784 14.5225C6.90948 14.8643 6.10282 15.04 5.14 15.04V15.44C6.15051 15.44 7.02385 15.2557 7.75216 14.8775L7.56784 14.5225ZM16.4122 15H16.2122V15.2H16.4122V15ZM16.4122 0.999999V0.799999H16.2122V0.999999H16.4122ZM23.7922 1.56L23.6974 1.73611L23.7 1.7375L23.7922 1.56ZM25.3322 3.06L25.1548 3.15239L25.3322 3.06ZM25.3322 7.46L25.1548 7.36761L25.3322 7.46ZM23.7922 8.98L23.8844 9.15752L23.887 9.15609L23.7922 8.98ZM18.5322 9.52V9.32H18.3322V9.52H18.5322ZM18.5322 15V15.2H18.7322V15H18.5322ZM18.5322 7.62H18.3322V7.82H18.5322V7.62ZM23.0322 6.98L22.8907 6.83856L22.8885 6.84084L23.0322 6.98ZM23.0322 3.56L22.8863 3.697L22.8908 3.70142L23.0322 3.56ZM18.5322 2.9V2.7H18.3322V2.9H18.5322ZM16.6122 15V0.999999H16.2122V15H16.6122ZM16.4122 1.2H21.1522V0.799999H16.4122V1.2ZM21.1522 1.2C22.197 1.2 23.0417 1.38303 23.6974 1.73609L23.887 1.3839C23.156 0.990305 22.2407 0.799999 21.1522 0.799999V1.2ZM23.7 1.7375C24.3601 2.0802 24.842 2.55188 25.1548 3.15239L25.5096 2.96761C25.1557 2.28811 24.611 1.75979 23.8844 1.3825L23.7 1.7375ZM25.1548 3.15239C25.4712 3.75995 25.6322 4.46078 25.6322 5.26H26.0322C26.0322 4.40588 25.8598 3.64005 25.5096 2.96761L25.1548 3.15239ZM25.6322 5.26C25.6322 6.05921 25.4712 6.76005 25.1548 7.36761L25.5096 7.55239C25.8598 6.87995 26.0322 6.11412 26.0322 5.26H25.6322ZM25.1548 7.36761C24.8417 7.96882 24.3588 8.44776 23.6974 8.80391L23.887 9.15609C24.6123 8.76557 25.156 8.23118 25.5096 7.55239L25.1548 7.36761ZM23.7 8.8025C23.0436 9.14332 22.1979 9.32 21.1522 9.32V9.72C22.2398 9.72 23.1541 9.53668 23.8844 9.1575L23.7 8.8025ZM21.1522 9.32H18.5322V9.72H21.1522V9.32ZM18.3322 9.52V15H18.7322V9.52H18.3322ZM18.5322 14.8H16.4122V15.2H18.5322V14.8ZM18.5322 7.82H21.0522V7.42H18.5322V7.82ZM21.0522 7.82C21.9849 7.82 22.709 7.60109 23.1758 7.11916L22.8885 6.84084C22.5287 7.21224 21.9328 7.42 21.0522 7.42V7.82ZM23.1736 7.12142C23.6449 6.65013 23.8722 6.02205 23.8722 5.26H23.4722C23.4722 5.93795 23.2728 6.45653 22.8908 6.83858L23.1736 7.12142ZM23.8722 5.26C23.8722 4.51008 23.6442 3.88915 23.1736 3.41858L22.8908 3.70142C23.2735 4.08418 23.4722 4.59659 23.4722 5.26H23.8722ZM23.178 3.42306C22.7113 2.92635 21.9864 2.7 21.0522 2.7V3.1C21.9313 3.1 22.5264 3.31365 22.8864 3.69693L23.178 3.42306ZM21.0522 2.7H18.5322V3.1H21.0522V2.7ZM18.3322 2.9V7.62H18.7322V2.9H18.3322ZM34.0444 14.36L34.1601 14.1969L34.0444 14.36ZM32.1444 11.86L31.9592 11.9355L32.1444 11.86ZM32.1444 4.14L31.9592 4.06454L32.1444 4.14ZM34.0444 1.64L33.9286 1.4769L34.0444 1.64ZM39.9244 1.64L39.8074 1.80221L39.8086 1.8031L39.9244 1.64ZM41.8244 4.14L42.0096 4.06454L41.8244 4.14ZM41.8244 11.86L42.0096 11.9355L41.8244 11.86ZM39.9244 14.36L39.8086 14.1969L39.8074 14.1978L39.9244 14.36ZM39.4044 11.9L39.5693 12.0132L39.57 12.0121L39.4044 11.9ZM39.4044 4.12L39.2387 4.23206L39.2395 4.2332L39.4044 4.12ZM34.5444 4.12L34.3787 4.00794L34.3783 4.00849L34.5444 4.12ZM34.5444 11.9L34.3776 12.0104L34.3795 12.0132L34.5444 11.9ZM36.9844 15.04C35.8874 15.04 34.949 14.7568 34.1601 14.1969L33.9286 14.5231C34.7931 15.1366 35.8147 15.44 36.9844 15.44V15.04ZM34.1601 14.1969C33.3689 13.6354 32.7575 12.8347 32.3296 11.7845L31.9592 11.9355C32.4113 13.0453 33.0665 13.9113 33.9286 14.5231L34.1601 14.1969ZM32.3296 11.7845C31.9017 10.7342 31.6844 9.47441 31.6844 8H31.2844C31.2844 9.51226 31.5071 10.8258 31.9592 11.9355L32.3296 11.7845ZM31.6844 8C31.6844 6.52559 31.9017 5.26581 32.3296 4.21546L31.9592 4.06454C31.5071 5.17419 31.2844 6.48774 31.2844 8H31.6844ZM32.3296 4.21546C32.7575 3.16526 33.3689 2.36459 34.1601 1.8031L33.9286 1.4769C33.0665 2.08874 32.4113 2.95474 31.9592 4.06454L32.3296 4.21546ZM34.1601 1.8031C34.949 1.24324 35.8874 0.96 36.9844 0.96V0.56C35.8147 0.56 34.7931 0.863431 33.9286 1.4769L34.1601 1.8031ZM36.9844 0.96C38.0953 0.96 39.0329 1.24353 39.8074 1.80221L40.0414 1.47779C39.1892 0.863132 38.1668 0.56 36.9844 0.56V0.96ZM39.8086 1.8031C40.5998 2.36459 41.2113 3.16526 41.6392 4.21546L42.0096 4.06454C41.5575 2.95474 40.9023 2.08874 40.0401 1.4769L39.8086 1.8031ZM41.6392 4.21546C42.0671 5.26581 42.2844 6.52559 42.2844 8H42.6844C42.6844 6.48774 42.4617 5.17419 42.0096 4.06454L41.6392 4.21546ZM42.2844 8C42.2844 9.47441 42.0671 10.7342 41.6392 11.7845L42.0096 11.9355C42.4617 10.8258 42.6844 9.51226 42.6844 8H42.2844ZM41.6392 11.7845C41.2113 12.8347 40.5998 13.6354 39.8086 14.1969L40.0401 14.5231C40.9023 13.9113 41.5575 13.0453 42.0096 11.9355L41.6392 11.7845ZM39.8074 14.1978C39.0329 14.7565 38.0953 15.04 36.9844 15.04V15.44C38.1668 15.44 39.1892 15.1369 40.0414 14.5222L39.8074 14.1978ZM36.9844 13.44C38.0565 13.44 38.9223 12.9555 39.5693 12.0132L39.2395 11.7868C38.6598 12.6312 37.9122 13.04 36.9844 13.04V13.44ZM39.57 12.0121C40.2149 11.0588 40.5244 9.713 40.5244 8H40.1244C40.1244 9.67367 39.8205 10.9279 39.2387 11.7879L39.57 12.0121ZM40.5244 8C40.5244 6.28731 40.215 4.94738 39.5693 4.0068L39.2395 4.2332C39.8204 5.07929 40.1244 6.32603 40.1244 8H40.5244ZM39.57 4.00794C38.9236 3.05241 38.0578 2.56 36.9844 2.56V2.96C37.9109 2.96 38.6584 3.37426 39.2387 4.23206L39.57 4.00794ZM36.9844 2.56C35.8986 2.56 35.0257 3.0515 34.3787 4.00794L34.71 4.23206C35.2897 3.37517 36.0435 2.96 36.9844 2.96V2.56ZM34.3783 4.00849C33.7468 4.94872 33.4444 6.28793 33.4444 8H33.8444C33.8444 6.3254 34.1419 5.07794 34.7104 4.23151L34.3783 4.00849ZM33.4444 8C33.4444 9.71237 33.747 11.0574 34.3776 12.0104L34.7112 11.7896C34.1418 10.9292 33.8444 9.67429 33.8444 8H33.4444ZM34.3795 12.0132C35.0271 12.9564 35.8999 13.44 36.9844 13.44V13.04C36.0422 13.04 35.2883 12.6303 34.7093 11.7868L34.3795 12.0132ZM51.9166 15H51.7166V15.2H51.9166V15ZM51.9166 2.9H52.1166V2.7H51.9166V2.9ZM48.1566 2.9H47.9566V3.1H48.1566V2.9ZM48.1566 0.999999V0.799999H47.9566V0.999999H48.1566ZM57.7966 0.999999H57.9966V0.799999H57.7966V0.999999ZM57.7966 2.9V3.1H57.9966V2.9H57.7966ZM54.0366 2.9V2.7H53.8366V2.9H54.0366ZM54.0366 15V15.2H54.2366V15H54.0366ZM52.1166 15V2.9H51.7166V15H52.1166ZM51.9166 2.7H48.1566V3.1H51.9166V2.7ZM48.3566 2.9V0.999999H47.9566V2.9H48.3566ZM48.1566 1.2H57.7966V0.799999H48.1566V1.2ZM57.5966 0.999999V2.9H57.9966V0.999999H57.5966ZM57.7966 2.7H54.0366V3.1H57.7966V2.7ZM53.8366 2.9V15H54.2366V2.9H53.8366ZM54.0366 14.8H51.9166V15.2H54.0366V14.8ZM66.5088 14.7L66.4206 14.8795L66.4219 14.8802L66.5088 14.7ZM64.7688 13.16L64.5988 13.2654L64.6003 13.2678L64.7688 13.16ZM64.1288 10.78V10.58H63.9258L63.9288 10.7829L64.1288 10.78ZM66.3688 10.78L66.5687 10.7762L66.565 10.58H66.3688V10.78ZM67.0888 12.6L66.9416 12.7355L66.9454 12.7395L67.0888 12.6ZM70.9287 12.8L71.0554 12.9548L71.0581 12.9525L70.9287 12.8ZM71.1888 10.14L71.0294 10.2611L71.0351 10.268L71.1888 10.14ZM69.9887 9.26L69.901 9.43979L69.9047 9.44146L69.9887 9.26ZM67.8688 8.44L67.9302 8.24969L67.93 8.24962L67.8688 8.44ZM65.3087 6.9L65.1541 7.02682L65.1554 7.02834L65.3087 6.9ZM72.2688 1.82L72.1388 1.97203L72.1402 1.97324L72.2688 1.82ZM73.5488 4.72V4.92H73.7531L73.7487 4.7157L73.5488 4.72ZM71.2887 4.72H71.0888V4.92H71.2887V4.72ZM71.0088 3.76L70.836 3.86079L70.8379 3.86399L71.0088 3.76ZM70.2087 2.98L70.1039 3.1504L70.1088 3.15324L70.2087 2.98ZM68.9287 2.66L68.9245 2.86H68.9287V2.66ZM67.3487 3.12L67.4655 3.28244L67.4688 3.28L67.3487 3.12ZM67.4887 5.92L67.3721 6.08249L67.3749 6.08444L67.4887 5.92ZM70.0287 7.04L69.9662 7.22995L69.9665 7.23008L70.0287 7.04ZM71.9688 7.92L71.8634 8.09012L71.8682 8.0929L71.9688 7.92ZM73.3088 9.22L73.1372 9.32294L73.1404 9.32793L73.3088 9.22ZM73.2487 13.26L73.4186 13.3657L73.4196 13.364L73.2487 13.26ZM71.6288 14.7L71.538 14.5218L71.5366 14.5225L71.6288 14.7ZM69.1087 15.04C68.1465 15.04 67.3105 14.8645 66.5956 14.5198L66.4219 14.8802C67.2003 15.2555 68.0977 15.44 69.1087 15.44V15.04ZM66.5969 14.5205C65.8953 14.176 65.3435 13.687 64.9372 13.0522L64.6003 13.2678C65.0473 13.9663 65.6556 14.504 66.4206 14.8795L66.5969 14.5205ZM64.9387 13.0546C64.5476 12.4237 64.3416 11.6672 64.3287 10.7771L63.9288 10.7829C63.9425 11.7328 64.1632 12.5629 64.5988 13.2654L64.9387 13.0546ZM64.1288 10.98H66.3688V10.58H64.1288V10.98ZM66.1688 10.7838C66.183 11.5379 66.4409 12.1918 66.9416 12.7355L67.2359 12.4645C66.8033 11.9948 66.5812 11.4354 66.5687 10.7762L66.1688 10.7838ZM66.9454 12.7395C67.4717 13.2804 68.1952 13.54 69.0888 13.54V13.14C68.2756 13.14 67.6658 12.9063 67.2321 12.4605L66.9454 12.7395ZM69.0888 13.54C69.904 13.54 70.5681 13.3535 71.0554 12.9548L70.8021 12.6452C70.4094 12.9665 69.8468 13.14 69.0888 13.14V13.54ZM71.0581 12.9525C71.5438 12.5404 71.7887 12.0043 71.7887 11.36H71.3887C71.3887 11.8891 71.1937 12.3129 70.7994 12.6475L71.0581 12.9525ZM71.7887 11.36C71.7887 10.8289 71.6443 10.3743 71.3424 10.012L71.0351 10.268C71.2665 10.5457 71.3887 10.9044 71.3887 11.36H71.7887ZM71.348 10.019C71.0681 9.65078 70.637 9.33996 70.0728 9.07854L69.9047 9.44146C70.4339 9.6867 70.8027 9.96255 71.0295 10.261L71.348 10.019ZM70.0764 9.08025C69.5182 8.80796 68.8019 8.53131 67.9302 8.24969L67.8073 8.63031C68.6689 8.90869 69.3659 9.17871 69.9011 9.43975L70.0764 9.08025ZM67.93 8.24962C66.7913 7.88312 65.9763 7.38611 65.4621 6.77166L65.1554 7.02834C65.7346 7.72056 66.6262 8.25021 67.8075 8.63038L67.93 8.24962ZM65.4634 6.77318C64.9494 6.14637 64.6888 5.37934 64.6888 4.46H64.2887C64.2887 5.46066 64.5748 6.3203 65.1541 7.02682L65.4634 6.77318ZM64.6888 4.46C64.6888 3.40839 65.0657 2.5721 65.8183 1.93239L65.5592 1.62761C64.7118 2.3479 64.2887 3.29828 64.2887 4.46H64.6888ZM65.8183 1.93239C66.5716 1.29209 67.6202 0.96 68.9888 0.96V0.56C67.5573 0.56 66.4059 0.907914 65.5592 1.62761L65.8183 1.93239ZM68.9888 0.96C70.3134 0.96 71.3567 1.30348 72.1388 1.97202L72.3987 1.66797C71.5274 0.923184 70.3841 0.56 68.9888 0.56V0.96ZM72.1402 1.97324C72.9159 2.62381 73.3232 3.53237 73.3488 4.7243L73.7487 4.7157C73.721 3.42763 73.2749 2.40286 72.3973 1.66676L72.1402 1.97324ZM73.5488 4.52H71.2887V4.92H73.5488V4.52ZM71.4887 4.72C71.4887 4.34716 71.3838 3.9915 71.1796 3.65601L70.8379 3.86399C71.007 4.14183 71.0888 4.42617 71.0888 4.72H71.4887ZM71.1815 3.65923C70.9759 3.30675 70.683 3.02272 70.3087 2.80676L70.1088 3.15324C70.4278 3.33728 70.6683 3.57325 70.836 3.86077L71.1815 3.65923ZM70.3136 2.80967C69.9285 2.5727 69.4634 2.46 68.9287 2.46V2.86C69.4074 2.86 69.7957 2.96063 70.1039 3.15033L70.3136 2.80967ZM68.933 2.46004C68.2698 2.44593 67.6972 2.60864 67.2288 2.96L67.4688 3.28C67.8536 2.99135 68.3344 2.8474 68.9245 2.85995L68.933 2.46004ZM67.232 2.9576C66.7522 3.3025 66.5088 3.78343 66.5088 4.38H66.9088C66.9088 3.9099 67.092 3.55083 67.4655 3.2824L67.232 2.9576ZM66.5088 4.38C66.5088 5.09618 66.7985 5.67065 67.3721 6.08246L67.6054 5.75753C67.139 5.42268 66.9088 4.97049 66.9088 4.38H66.5088ZM67.3749 6.08444C67.9193 6.46135 68.7885 6.84185 69.9662 7.22995L70.0913 6.85005C68.9224 6.46482 68.0982 6.09865 67.6026 5.75556L67.3749 6.08444ZM69.9665 7.23008C70.6873 7.46596 71.3191 7.75303 71.8635 8.09005L72.074 7.74995C71.4984 7.39364 70.8369 7.09404 70.091 6.84992L69.9665 7.23008ZM71.8682 8.0929C72.4144 8.41043 72.8358 8.82043 73.1373 9.3229L73.4802 9.1171C73.1417 8.5529 72.6698 8.09624 72.0693 7.7471L71.8682 8.0929ZM73.1404 9.32793C73.4475 9.807 73.6087 10.433 73.6087 11.22H74.0088C74.0088 10.3803 73.8367 9.673 73.4771 9.11207L73.1404 9.32793ZM73.6087 11.22C73.6087 11.9315 73.4314 12.5753 73.0779 13.156L73.4196 13.364C73.8128 12.718 74.0088 12.0018 74.0088 11.22H73.6087ZM73.0789 13.1543C72.7271 13.7198 72.2162 14.1763 71.538 14.5218L71.7195 14.8782C72.4546 14.5037 73.0237 14.0002 73.4186 13.3657L73.0789 13.1543ZM71.5366 14.5225C70.8782 14.8643 70.0716 15.04 69.1087 15.04V15.44C70.1193 15.44 70.9926 15.2557 71.7209 14.8775L71.5366 14.5225Z" fill="#212121" mask="url(#path-1-outside-1_15481_41)"/>
</svg>
